<?xml version="1.0" encoding="UTF-8"?>
<!DOCTYPE svg PUBLIC "-//W3C//DTD SVG 1.1//EN" "http://www.w3.org/Graphics/SVG/1.1/DTD/svg11.dtd">
<!-- Creator: CorelDRAW -->
<svg xmlns="http://www.w3.org/2000/svg" xml:space="preserve" width="31.228mm" height="23.421mm" version="1.1" style="shape-rendering:geometricPrecision; text-rendering:geometricPrecision; image-rendering:optimizeQuality; fill-rule:evenodd; clip-rule:evenodd"
viewBox="0 0 3108.6 2331.45"
 xmlns:xlink="http://www.w3.org/1999/xlink"
 xmlns:xodm="http://www.corel.com/coreldraw/odm/2003">
 <defs>
  <style type="text/css">
   <![CDATA[
    .fil0 {fill:#FEFEFE}
   ]]>
  </style>
 </defs>
 <g id="Layer_x0020_1">
  <metadata id="CorelCorpID_0Corel-Layer"/>
  <g id="_1737551595648">
   <path class="fil0" d="M1229.99 535.17c-40.1,-22.91 -89.34,-22.75 -129.28,0.43 -39.94,23.17 -64.52,65.86 -64.52,112.03l0 1036.21c0,46.17 24.58,88.85 64.52,112.02 39.94,23.17 89.18,23.34 129.28,0.43l906.67 -518.09c40.36,-23.05 65.26,-65.97 65.26,-112.46 0,-46.49 -24.91,-89.4 -65.26,-112.46l-906.67 -518.1zm581.34 630.56l-516.07 294.9 0 -589.81 516.07 294.9z"/>
   <path class="fil0" d="M-0 1165.73c0,-485.68 0,-728.52 123.69,-898.77 39.95,-54.98 88.3,-103.33 143.28,-143.28 170.24,-123.69 413.08,-123.69 898.77,-123.69l777.15 0c485.68,0 728.52,0 898.77,123.69 54.98,39.95 103.33,88.3 143.28,143.28 123.69,170.24 123.69,413.08 123.69,898.77 0,485.68 0,728.52 -123.69,898.77 -39.95,54.98 -88.3,103.33 -143.28,143.28 -170.24,123.69 -413.08,123.69 -898.77,123.69l-777.15 0c-485.68,0 -728.52,0 -898.77,-123.69 -54.98,-39.95 -103.33,-88.3 -143.28,-143.28 -123.69,-170.24 -123.69,-413.08 -123.69,-898.77zm1165.73 -906.68l777.15 0c248.61,0 414.26,0.36 539.78,13.96 120.66,13.07 173.13,35.85 206.73,60.25 32.98,23.97 62,52.98 85.97,85.97 24.41,33.6 47.17,86.07 60.25,206.73 13.61,125.51 13.96,291.16 13.96,539.78 0,248.61 -0.35,414.26 -13.96,539.78 -13.08,120.66 -35.85,173.13 -60.25,206.73 -23.97,32.98 -52.99,62 -85.97,85.97 -33.6,24.41 -86.07,47.17 -206.73,60.25 -125.52,13.61 -291.16,13.96 -539.78,13.96l-777.15 0c-248.61,0 -414.27,-0.35 -539.78,-13.96 -120.66,-13.08 -173.13,-35.85 -206.73,-60.25 -32.99,-23.97 -62,-52.99 -85.97,-85.97 -24.41,-33.6 -47.18,-86.07 -60.25,-206.73 -13.6,-125.52 -13.96,-291.16 -13.96,-539.78 0,-248.61 0.36,-414.27 13.96,-539.78 13.07,-120.66 35.85,-173.13 60.25,-206.73 23.97,-32.99 52.98,-62 85.97,-85.97 33.6,-24.41 86.07,-47.18 206.73,-60.25 125.51,-13.6 291.16,-13.96 539.78,-13.96z"/>
  </g>
 </g>
</svg>
